<?xml version="1.0" encoding="UTF-8"?>
<svg id="_レイヤー_1" data-name="レイヤー 1" xmlns="http://www.w3.org/2000/svg" viewBox="0 0 20 20">
  <defs>
    <style>
      .cls-1, .cls-2 {
        fill: none;
      }

      .cls-2 {
        stroke: #200;
        stroke-miterlimit: 10;
        stroke-width: 1.21px;
      }

      .cls-3 {
        fill: #eef1ec;
      }
    </style>
  </defs>
  <rect class="cls-3" x="-1361.2" y="-1211" width="1440" height="7658"/>
  <rect class="cls-1" x="-1361.2" y="-1211" width="1440" height="7658.5"/>
  <rect class="cls-1" x="-1361.2" y="-1211" width="1440" height="7658.5"/>
  <rect class="cls-1" x="-1361.2" y="-1211" width="1440" height="7658.5"/>
  <rect class="cls-1" x="-1361.2" y="-1211" width="1440" height="7658.5"/>
  <rect class="cls-1" x="-1361.2" y="-1211" width="1440" height="7658.5"/>
  <polyline class="cls-2" points="5 19.57 14.57 10 5 .43"/>
  <rect class="cls-1" x="-1361.2" y="-1211" width="1440" height="7658.5"/>
  <rect class="cls-1" x="-1361.2" y="-1211" width="1440" height="7658.5"/>
  <rect class="cls-1" x="-1361.2" y="-1211" width="1440" height="7658.5"/>
  <rect class="cls-1" x="-1361.2" y="-1211" width="1440" height="7658.5"/>
  <rect class="cls-1" x="-1361.2" y="-1211" width="1440" height="7658.5"/>
  <rect class="cls-1" x="-1361.2" y="-1211" width="1440" height="7658.5"/>
  <rect class="cls-1" x="-1361.2" y="-1211" width="1440" height="7658.5"/>
  <rect class="cls-1" x="-1361.2" y="-1211" width="1440" height="7658.5"/>
  <rect class="cls-1" x="-1361.2" y="-1211" width="1440" height="7658.5"/>
  <rect class="cls-1" x="-1361.2" y="-1211" width="1440" height="7658.5"/>
  <rect class="cls-1" x="-1361.2" y="-1211" width="1440" height="7658.5"/>
  <rect class="cls-1" x="-1361.2" y="-1211" width="1440" height="7658.5"/>
  <rect class="cls-1" x="-1361.2" y="-1211" width="1440" height="7658.5"/>
</svg>