<?xml version="1.0" encoding="UTF-8"?>
<svg id="_レイヤー_1" data-name="レイヤー 1" xmlns="http://www.w3.org/2000/svg" viewBox="0 0 17.52 14.78">
  <defs>
    <style>
      .cls-1 {
        fill: none;
        stroke: #200;
        stroke-miterlimit: 10;
        stroke-width: .57px;
      }
    </style>
  </defs>
  <path class="cls-1" d="M15.35,2.21H.77c-.37,0-.6.4-.42.72l1.7,4.65c.03.09.08.19.13.27.61.98,1.69,1.58,2.86,1.58h8.02c.22,0,.41-.15.46-.35L15.83.28h1.68"/>
  <path class="cls-1" d="M6.91,12.61c0,1.04-.84,1.88-1.88,1.88s-1.88-.84-1.88-1.88.84-1.88,1.88-1.88,1.88.84,1.88,1.88Z"/>
  <path class="cls-1" d="M13.66,12.61c0,1.04-.84,1.88-1.88,1.88s-1.88-.84-1.88-1.88.84-1.88,1.88-1.88,1.88.84,1.88,1.88Z"/>
</svg>
