<?xml version="1.0" encoding="UTF-8"?>
<svg id="_レイヤー_1" data-name="レイヤー 1" xmlns="http://www.w3.org/2000/svg" viewBox="0 0 201 55.01">
  <defs>
    <style>
      .cls-1 {
        fill: #fff;
      }
    </style>
  </defs>
  <path class="cls-1" d="M200.83,18.38c-.23-.39-.63-.62-1.08-.62h-33.36c-.22,0-.4-.18-.4-.4V3.82c0-2.11-1.71-3.82-3.82-3.82h-87.69c-2.11,0-3.82,1.71-3.82,3.82v13.54c0,.22-.18.4-.4.4H1.25c-.45,0-.85.23-1.08.62-.23.38-.23.85,0,1.25l19.62,33.08c.79,1.42,2.29,2.31,3.92,2.31h159.5c1.63,0,3.13-.88,3.92-2.31l13.72-33.11c.2-.39.19-.84-.03-1.22M200.1,19.2l-14.4,32.31c-.64,1.14-1.86,1.85-3.17,1.85l-158.82.79c-1.32,0-2.54-.72-3.19-1.88L.9,19.2c-.1-.18-.03-.34,0-.4.04-.06.14-.2.35-.2h69.02c.69,0,1.25-.56,1.25-1.25V3.82c0-1.64,1.33-2.97,2.97-2.97h87.69c1.64,0,2.97,1.33,2.97,2.97v13.54c0,.69.56,1.25,1.25,1.25h33.36c.21,0,.31.14.35.2.04.06.1.22,0,.4"/>
  <path class="cls-1" d="M84.37,8.13h1.04v4.91h-1.04v-2.09h-2.15v2.09h-1.04v-4.91h1.04v1.89h2.15v-1.89ZM91.65,10.58c0,1.43-1.16,2.58-2.59,2.58s-2.59-1.16-2.59-2.58,1.16-2.59,2.59-2.59,2.59,1.16,2.59,2.59M90.65,10.58c0-.88-.71-1.59-1.59-1.59s-1.59.71-1.59,1.59.71,1.58,1.59,1.58,1.59-.71,1.59-1.58M98.02,13.04h1.05v-4.91h-1.05v4.91ZM109.15,11.07c0,.72-.41,1.17-1.06,1.17s-1.06-.45-1.06-1.17v-2.94h-1.04v3.06c0,1.18.81,1.99,2.1,1.99s2.1-.8,2.1-1.99v-3.06h-1.04v2.94ZM95.63,10.97l1.25,2.07h-1.15l-1.1-1.89h-.86v1.89h-1.04v-4.91h2.01c.95,0,1.88.36,1.88,1.48,0,.66-.35,1.17-.99,1.36M95.59,9.63c0-.46-.44-.7-.79-.7h-1.04v1.44h.97c.38,0,.86-.24.86-.75M113.88,12.11c-.48,0-.92-.17-1.19-.44-.3-.31-.44-.66-.44-1.09s.14-.78.44-1.09c.26-.28.71-.44,1.19-.44.09,0,.18,0,.27.01.18.02.63.1,1.01.32v-1.07c-.43-.31-1.35-.31-1.35-.31-.81,0-1.47.3-1.99.9-.41.49-.62,1.06-.62,1.68s.21,1.19.62,1.68c.51.6,1.18.91,1.99.91.49,0,.98-.09,1.35-.31v-1.1c-.38.23-.82.3-1.01.32-.09,0-.18.02-.27.02M119.75,10.02h-2.15v-1.89h-1.04v4.91h1.04v-2.09h2.15v2.09h1.04v-4.91h-1.04v1.89ZM122.41,13.04h1.05v-4.91h-1.05v4.91ZM129.82,12.11c-.48,0-.92-.17-1.19-.44-.3-.31-.44-.66-.44-1.09s.14-.78.44-1.09c.26-.28.7-.44,1.19-.44.09,0,.18,0,.27.01.18.02.63.1,1.01.32v-1.07c-.43-.31-1.35-.31-1.35-.31-.81,0-1.47.3-1.98.9-.42.49-.62,1.06-.62,1.68s.21,1.19.62,1.68c.51.6,1.17.91,1.98.91.49,0,.98-.09,1.35-.31v-1.1c-.38.23-.82.3-1.01.32-.09,0-.18.02-.27.02M137.17,10.58c0,1.43-1.16,2.58-2.58,2.58s-2.59-1.16-2.59-2.58,1.15-2.59,2.59-2.59,2.58,1.16,2.58,2.59M136.17,10.58c0-.88-.71-1.59-1.59-1.59s-1.59.71-1.59,1.59.71,1.58,1.59,1.58,1.59-.71,1.59-1.58M142.81,13.04h1.02v-1.96h1.93v-.93h-1.93v-1.1h2.31v-.92h-3.34v4.91ZM155.46,9.06v-.93h-3.33v4.91h3.33v-.93h-2.31v-1.05h0s1.93,0,1.93,0v-.93h-1.93v-1.06h2.31ZM102.89,10.97h.95v1.17s-.84.21-1.54-.1c-.46-.21-.88-.64-.88-1.47,0-.11.03-1.19,1.17-1.53.01,0,.24-.07.59-.07s.83.06,1.34.36v-1.01c-.41-.23-.96-.35-1.64-.31-1.43.07-2.49,1.08-2.49,2.57,0,0-.03,1.56,1.26,2.26.5.29,2,.62,3.09-.05v-2.64h-1.86s0,.82,0,.82ZM138.21,13.04h1.02v-1.96h1.93v-.93h-1.93v-1.1h2.31v-.92h-3.33v4.91ZM147.41,13.04h3.33v-.93h-2.31v-1.05h0s1.93,0,1.93,0v-.93h-1.93v-1.06h2.31v-.93h-3.33v4.91Z"/>
  <path class="cls-1" d="M36.02,36.73s-.04-.02-.06-.01c-.55.03-1.03.04-1.67.04-.98,0-1.49-.02-1.99-.04-.03,0-.05,0-.07.02-.07.05-.12.13-.13.25-.02.13.02.27.1.35.01.02.03.03.05.03l.35.09c.84.15.84.17.84,1.19v.53c0,.48-.03.76-.1.87-.1.13-.38.29-1.13.29-.38,0-1.68-.09-2.57-1.21-.8-1.02-.97-2.38-.97-3.33,0-2.68,1.3-4.28,3.48-4.28,1.35,0,2.25.73,2.53,2.06,0,0,0,.02.01.03.05.09.16.15.3.15h0c.15,0,.29-.08.34-.19,0-.02.01-.04.01-.05-.04-.62-.08-1.12-.12-1.52-.03-.35-.06-.62-.06-.83,0-.06-.05-.11-.11-.11-.14,0-.52-.05-.86-.13-.48-.1-1.19-.22-1.85-.22-1.9,0-3.45.62-4.48,1.78-.83.93-1.29,2.19-1.29,3.56s.45,2.59,1.24,3.47c.97,1.09,2.47,1.67,4.32,1.67.72,0,1.73-.15,2.7-.4.16-.04.32-.21.39-.42.06-.19.05-.41.05-.73,0-.1,0-.21,0-.34v-.86c0-.91.09-.93.5-1l.25-.04s.04-.01.05-.02c.09-.07.14-.21.12-.34-.01-.12-.08-.23-.17-.28"/>
  <path class="cls-1" d="M63.51,38.46c-.12-.02-.24,0-.33.08-.01.01-.02.03-.03.04-.45,1.13-.7,1.53-2.34,1.53h-.09c-1.17-.02-1.34-.12-1.47-.28-.19-.23-.21-.83-.21-1.47v-1.88q0-.29.22-.29h.66c1.23,0,1.34.04,1.42.56l.1.44s.02.05.04.06c.1.08.27.1.38.08.1-.02.18-.06.23-.12.01-.02.02-.04.02-.07,0-.16-.01-.31-.02-.46-.01-.28-.02-.57-.02-.94s.01-.68.03-.97c0-.12.01-.24.01-.36,0-.02,0-.04-.01-.06-.04-.08-.13-.13-.24-.14-.14-.02-.29.02-.38.1-.01.02-.03.03-.03.05l-.1.36c-.1.53-.18.56-1.42.56h-.66c-.06,0-.18,0-.2-.01-.02-.03-.02-.18-.02-.27v-2.5q0-.76.48-.76h.92c.38,0,.78.05,1.07.13.38.12.57.42.79,1.27,0,.02.02.04.04.06.11.09.27.09.38.06.11-.03.2-.08.23-.16,0-.02.01-.04,0-.06-.04-.29-.07-.69-.11-1.07-.04-.46-.08-.85-.11-.99-.01-.06-.07-.1-.13-.09-.16.03-.88.04-1.84.04h-2.63c-.63,0-1.28-.02-1.77-.04-.02,0-.04,0-.06.01-.07.04-.13.12-.15.24-.02.11,0,.27.09.37.02.02.04.03.07.04l.22.03c.57.08.67.09.67,1.6v5.51c0,1.5-.09,1.51-.67,1.57l-.51.06s-.05.02-.07.04c-.09.1-.11.26-.09.37.02.11.07.2.15.24.02.01.04.02.06.01.64-.03,1.49-.04,2.06-.04h1.57c1.63,0,2.8.02,3.39.04,0,0,0,0,0,0,.04,0,.08-.02.1-.06.2-.41.5-1.55.59-2.18,0-.02,0-.05-.01-.07-.06-.1-.16-.17-.29-.2"/>
  <path class="cls-1" d="M75.11,30.89c-.49.03-.84.04-1.44.04-.53,0-1.03-.01-1.58-.04-.01,0-.03,0-.04,0-.09.03-.16.12-.18.23-.02.12,0,.29.12.39.02.01.04.02.06.03l.32.04c.32.04.5.14.6.31.25.44.25,2.02.25,2.86v3.01c-.25-.28-.78-.92-1.19-1.41-.24-.29-.47-.57-.64-.77l-1.38-1.6c-.49-.57-1.97-2.41-2.2-3.03-.02-.05-.07-.07-.12-.07-.32.03-.64.04-.94.04h-.18c-.37,0-1,0-1.43-.04-.02,0-.03,0-.05,0-.09.03-.16.11-.18.23-.03.12-.01.3.09.39.01.01.03.02.05.03l.21.04c.19.04.55.16.68.27.42.38.42.58.42,1.64v3.6c0,1.14,0,2.44-.17,2.87-.07.16-.23.21-.49.26l-.34.08s-.04.01-.05.03c-.08.07-.11.19-.1.32.01.13.07.23.15.29.02.01.05.03.07.02.45-.03.83-.04,1.43-.04.53,0,1.07.01,1.56.04.01,0,.03,0,.04,0,.09-.03.16-.11.18-.23.02-.13,0-.3-.12-.39-.02-.01-.04-.02-.06-.02l-.31-.04c-.33-.04-.52-.14-.62-.31-.23-.44-.23-2.02-.23-2.86v-2.89c0-.32,0-.56,0-.71.27.3.73.85,1.4,1.7l3.22,3.95c.95,1.16,1.33,1.63,1.55,1.95.02.03.05.04.08.05.02,0,.04,0,.06,0,.2,0,.45-.08.57-.26.02-.02.02-.05.02-.08-.02-.15-.04-.71-.04-2.52v-3.54c0-1.14,0-2.43.18-2.87.07-.16.22-.21.48-.27l.35-.08s.04-.01.05-.03c.08-.07.11-.19.1-.32-.01-.13-.07-.23-.15-.29-.02-.01-.05-.02-.07-.02"/>
  <path class="cls-1" d="M86.04,35.39c.99-.38,1.55-1.08,1.55-1.96,0-.94-.32-1.58-1.02-2.02-.58-.36-1.43-.52-2.76-.52-1.18,0-2.21.04-3.15.13-.02,0-.04,0-.05.02-.07.05-.12.13-.13.24-.02.13.02.26.1.34.02.02.04.03.07.04l.36.04c.54.06.56.12.56,1.56v5.42c0,1.5-.09,1.51-.67,1.59l-.3.04s-.05.02-.07.04c-.09.1-.1.26-.09.37.02.11.07.2.15.24.02.01.04.02.06.01.59-.03,1.23-.04,1.85-.04.25,0,.51.01.79.02.3.01.61.02.92.02,1.57,0,2.53-.26,3.2-.86.73-.63.88-1.46.88-2.05,0-2.07-1.67-2.57-2.24-2.67M83.4,36.24c0-.23,0-.27.52-.27,1.49,0,2.38.86,2.38,2.31,0,1.29-.84,1.87-1.68,1.87-1.06,0-1.22-.4-1.22-1.78v-2.13ZM83.87,35.18q-.48,0-.48-.29v-2.68q0-.51.62-.51c.75,0,1.63.45,1.63,1.71s-.51,1.77-1.77,1.77"/>
  <path class="cls-1" d="M97.12,38.46c-.12-.02-.24,0-.33.08-.01.01-.03.03-.03.04-.45,1.13-.7,1.53-2.34,1.53h-.09c-1.17-.02-1.34-.12-1.47-.28-.19-.23-.21-.83-.21-1.47v-1.88q0-.29.22-.29h.66c1.23,0,1.34.04,1.42.56l.1.44s.02.05.04.06c.1.08.27.1.38.08.1-.02.18-.06.22-.12.01-.02.02-.04.02-.07,0-.16-.01-.31-.02-.46-.01-.29-.02-.57-.02-.94s.01-.68.03-.97c0-.12.01-.23.01-.35,0-.02,0-.04-.01-.06-.04-.08-.13-.13-.24-.14-.14-.02-.29.02-.38.1-.02.02-.03.03-.03.05l-.1.36c-.1.53-.18.56-1.42.56h-.66c-.06,0-.18,0-.2-.01-.02-.03-.02-.18-.02-.27v-2.5q0-.76.48-.76h.92c.38,0,.78.05,1.07.13.38.12.57.42.79,1.27,0,.02.02.04.04.06.11.09.27.09.38.06.11-.03.2-.08.23-.16,0-.02.01-.04,0-.06-.04-.29-.08-.69-.11-1.07-.04-.46-.08-.85-.11-1-.01-.06-.07-.09-.13-.09-.16.03-.88.04-1.84.04h-2.63c-.63,0-1.28-.02-1.77-.04-.02,0-.04,0-.06.01-.07.04-.13.12-.15.24-.02.11,0,.27.09.37.02.02.04.03.07.04l.22.03c.57.08.67.09.67,1.6v5.51c0,1.5-.09,1.51-.67,1.57l-.51.06s-.05.02-.07.04c-.09.1-.11.26-.09.37.02.11.07.2.14.24.02.01.04.02.06.01.64-.03,1.49-.04,2.06-.04h1.57c1.63,0,2.81.02,3.39.04,0,0,0,0,0,0,.04,0,.08-.02.1-.06.2-.41.51-1.55.59-2.18,0-.02,0-.05-.01-.07-.05-.1-.16-.17-.29-.2"/>
  <path class="cls-1" d="M107.25,40.32l-.21-.04c-.65-.14-.7-.19-1-1.15l-1.98-6.2c-.11-.33-.21-.67-.31-1.01-.1-.34-.2-.68-.31-1.02,0-.01,0-.02-.02-.03-.08-.11-.19-.17-.33-.17h0c-.21,0-.41,0-.6,0-.37,0-.72.01-1.06,0-.02,0-.04,0-.06.01-.07.04-.13.12-.15.24-.02.11,0,.27.09.37.02.02.04.03.07.04l.22.03c.26.04.39.09.43.16.06.1-.03.37-.16.75h0c-.03.09-.07.19-.1.28l-1.88,5.27-.11.31c-.23.65-.42,1.16-.56,1.49-.2.46-.32.55-.67.61l-.41.07s-.06.02-.07.04c-.13.18-.11.47.04.59.02.02.05.03.08.02.49-.03.91-.04,1.35-.04.17,0,.34,0,.51.01.37,0,.71.01,1.02.03.02,0,.04,0,.06-.01.07-.04.13-.12.15-.24.02-.11,0-.27-.09-.37-.02-.02-.04-.03-.06-.03l-.4-.07c-.21-.04-.37-.07-.42-.14-.07-.12.02-.46.1-.7l.56-1.82q.09-.28.35-.28h1.9q.36,0,.46.32l.65,2.02c.07.21.14.44.09.52-.04.06-.19.09-.35.12l-.3.04s-.05.02-.07.04c-.1.1-.09.28-.08.33.01.12.07.22.14.27.02.01.04.02.07.02h.38c.4-.03.85-.05,1.29-.05.67,0,1.19.01,1.78.04,0,0,0,0,0,0,.03,0,.05,0,.07-.02.07-.05.11-.15.11-.26,0-.11-.02-.25-.12-.34-.01-.01-.03-.02-.05-.03M102.44,33.72c.05.18.12.4.21.68l.58,1.77c.05.17.05.21.05.21-.03.02-.2.02-.27.02h-1.5c-.08,0-.18,0-.18,0,0-.04.05-.22.07-.29l.62-1.73.14-.42c.08-.23.14-.43.19-.57.03.08.06.19.1.31"/>
  <path class="cls-1" d="M118.15,30.89c-.49.03-.84.04-1.44.04-.53,0-1.03-.01-1.58-.04-.01,0-.03,0-.04,0-.09.03-.16.12-.18.23-.02.13,0,.29.12.39.02.01.04.02.06.03l.32.04c.32.04.51.14.6.31.25.44.25,2.02.25,2.86v2.89s0,.08,0,.12c-.25-.28-.78-.91-1.19-1.4-.24-.29-.48-.57-.65-.77l-1.38-1.6c-.49-.57-1.97-2.41-2.2-3.03-.02-.05-.07-.07-.12-.07-.32.03-.64.04-.94.04h-.18c-.37,0-.99,0-1.43-.04-.02,0-.03,0-.05,0-.09.03-.16.11-.18.23-.03.12-.01.3.09.39.01.01.03.02.05.03l.21.04c.19.04.55.16.68.27.42.38.42.58.42,1.64v3.6c0,1.14,0,2.44-.17,2.87-.07.16-.23.21-.49.26l-.34.08s-.04.01-.05.03c-.08.07-.11.19-.1.32.01.13.06.23.15.29.02.01.04.03.07.02.45-.03.83-.04,1.43-.04.53,0,1.07.01,1.56.04.01,0,.03,0,.04,0,.09-.03.16-.11.18-.23.02-.13,0-.3-.12-.39-.02-.01-.04-.02-.06-.02l-.31-.04c-.33-.04-.52-.14-.62-.31-.23-.44-.23-2.02-.23-2.86v-2.89c0-.32,0-.56,0-.71.27.3.73.85,1.4,1.7l3.22,3.95c.97,1.19,1.33,1.63,1.55,1.95.02.03.05.04.08.05.02,0,.04,0,.06,0,.2,0,.45-.08.57-.26.02-.02.02-.05.02-.08-.02-.15-.04-.71-.04-2.52v-3.54c0-1.14,0-2.43.18-2.87.07-.16.22-.21.48-.27l.35-.08s.04-.01.05-.03c.08-.07.12-.19.1-.32-.01-.13-.07-.23-.15-.29-.02-.01-.05-.02-.07-.02"/>
  <path class="cls-1" d="M123.48,35.15l-.85-.49c-.81-.46-1.25-1.07-1.25-1.71,0-.7.38-1.44,1.44-1.44.86,0,1.45.56,1.75,1.68,0,.02.02.04.04.06.1.08.24.11.38.09.11-.02.19-.08.24-.17,0-.02.01-.03.01-.05,0-.66-.13-1.68-.3-2.05-.01-.03-.04-.06-.08-.06-.16-.03-.31-.07-.46-.1-.46-.11-.9-.21-1.45-.21-1.56,0-3.14.87-3.14,2.82,0,1.16.67,2.16,2,2.96l.59.35c.93.56,1.35,1.19,1.35,2.05s-.6,1.47-1.52,1.47c-1.42,0-2.11-1.88-2.23-2.26,0-.02-.02-.03-.03-.05-.08-.08-.21-.11-.33-.09-.12.02-.22.08-.27.18,0,.02-.01.04-.01.05-.01.86.15,1.96.44,2.32,0,0,.02.02.03.02.25.16.99.64,2.32.64,2.01,0,3.31-1.18,3.31-3,0-1.67-1.22-2.61-1.94-3.02"/>
  <path class="cls-1" d="M134.69,35.15l-.85-.49c-.81-.46-1.25-1.07-1.25-1.71,0-.7.38-1.44,1.44-1.44.86,0,1.45.56,1.75,1.68,0,.02.02.04.04.06.1.08.24.11.38.09.11-.02.19-.08.24-.17,0-.02.01-.03.01-.05,0-.66-.13-1.68-.3-2.05-.01-.03-.04-.06-.08-.06-.16-.03-.31-.07-.46-.1-.46-.11-.9-.21-1.45-.21-1.56,0-3.14.87-3.14,2.82,0,1.16.67,2.16,2,2.96l.59.35c.93.56,1.35,1.19,1.35,2.05s-.6,1.47-1.52,1.47c-1.42,0-2.11-1.88-2.23-2.26,0-.02-.02-.03-.03-.05-.08-.08-.21-.11-.33-.09-.12.02-.22.08-.27.18,0,.02-.01.04-.01.05-.01.86.15,1.96.44,2.32,0,0,.02.02.03.02.24.16.99.64,2.32.64,2.01,0,3.31-1.18,3.31-3,0-1.59-1.06-2.52-1.94-3.02"/>
  <path class="cls-1" d="M152.64,30.69c-2.92,0-5.04,2.26-5.04,5.37,0,2.53,1.72,5.1,5.01,5.1,2.83,0,4.96-2.24,4.96-5.21,0-2.54-1.54-5.27-4.93-5.27M155.47,36.22c0,2.62-.99,4.12-2.72,4.12-2.41,0-3.05-2.96-3.05-4.71,0-3.04,1.43-4.12,2.76-4.12,2.07,0,3.01,2.44,3.01,4.71"/>
  <path class="cls-1" d="M54.38,38.46c-.12-.02-.24,0-.33.08-.01.01-.03.03-.03.04-.45,1.13-.7,1.53-2.34,1.53h-.09c-1.17-.02-1.34-.12-1.47-.28-.19-.23-.21-.83-.21-1.47v-1.88q0-.29.22-.29h.66c1.23,0,1.34.04,1.42.56l.1.44s.02.05.04.06c.1.08.26.1.38.08.1-.02.18-.06.22-.12.01-.02.02-.04.02-.07,0-.16-.01-.31-.02-.46-.01-.29-.03-.57-.03-.94s.01-.68.03-.97c0-.12.01-.23.01-.35,0-.02,0-.04-.02-.06-.04-.07-.13-.13-.24-.14-.14-.02-.29.02-.38.1-.01.01-.03.03-.03.05l-.1.36c-.1.53-.18.56-1.42.56h-.66c-.06,0-.17,0-.2-.01-.02-.03-.02-.18-.02-.27v-2.5q0-.76.48-.76h.92c.38,0,.78.05,1.07.13.38.12.57.42.79,1.27,0,.02.02.04.04.06.11.09.27.09.38.06.11-.03.2-.08.23-.16,0-.02.01-.04.01-.06-.04-.29-.07-.69-.11-1.07-.04-.46-.08-.85-.11-.99-.01-.06-.07-.09-.13-.09-.16.03-.88.04-1.84.04h-2.63c-.63,0-1.28-.02-1.77-.04-.02,0-.04,0-.06.01-.07.04-.13.12-.14.24-.02.11,0,.27.09.37.02.02.04.03.07.04l.22.03c.57.08.67.09.67,1.6v5.51c0,.95-.03,1.56-.67,1.73-.64.17-1.18,0-1.77-.41-.53-.37-1.17-1.55-2.06-3.17l-.35-.63s-.04-.09-.05-.09c.64-.28,1.72-.97,1.72-2.44,0-1.27-.69-1.93-1.27-2.26-.59-.34-1.49-.52-2.67-.52s-2.35.05-3.18.13c-.02,0-.04,0-.05.02-.07.05-.12.13-.13.24-.01.13.02.26.1.34.02.02.04.03.07.04l.36.04c.54.06.56.12.56,1.56v5.42c0,1.5-.09,1.51-.67,1.59l-.3.04s-.04.01-.06.02c-.08.07-.13.2-.11.33.01.13.08.24.16.29.02,0,.04.02.06.01,1.26-.06,2.49-.06,3.68,0,.02,0,.04,0,.06-.01.07-.04.13-.12.15-.24.02-.11,0-.27-.09-.37-.02-.02-.04-.03-.07-.04l-.3-.04c-.58-.08-.67-.09-.67-1.59v-1.89c0-.06,0-.17.01-.19.03-.02.2-.02.3-.02.42,0,.53.04.75.45.14.25.3.55.46.86.21.4.42.8.63,1.16.9,1.47,1.67,1.99,2.97,2.01.03,0,.06,0,.09,0,.4,0,1.03-.03,1.54-.05.58-.03,1.18-.06,1.74-.06h1.57c1.63,0,2.81.02,3.39.04.05.01.09-.02.11-.06.2-.41.5-1.55.59-2.18,0-.02,0-.05-.01-.07-.06-.1-.16-.17-.29-.2M42.93,33.78c0,1.37-.59,2-1.85,2q-.55,0-.55-.39v-3.08q0-.61.61-.61c1.23,0,1.79,1.08,1.79,2.08"/>
  <path class="cls-1" d="M146.57,30.6c-.05-.07-.13-.11-.25-.11-.11,0-.19.04-.24.11,0,.01-.01.03-.01.04-.05.26-.11.29-1.09.29h-5.01c-.97,0-1.04-.03-1.09-.29,0-.01,0-.03-.01-.04-.05-.07-.13-.11-.24-.11-.12,0-.2.04-.25.11,0,.01-.01.03-.01.04-.1.53-.31,1.45-.53,2.22,0,.02,0,.05,0,.07.04.1.13.18.27.21.11.03.26.02.35-.06.01-.01.02-.02.03-.04.5-1.17.83-1.29,2.04-1.29h.77q.26,0,.26.54v6.39c0,1.47-.08,1.48-.67,1.56l-.58.07s-.04.01-.06.02c-.12.09-.11.28-.11.33.01.14.07.24.15.29.02,0,.04.02.06.01.92-.03,1.56-.04,2.13-.04s1.18.01,2.02.04h0s.04,0,.05-.01c.07-.04.13-.12.14-.24.02-.11,0-.27-.09-.37-.02-.02-.04-.03-.07-.04l-.5-.06c-.58-.07-.67-.08-.67-1.57v-6.39q0-.54.26-.54h.77c1.21,0,1.54.12,2.04,1.29,0,.01.01.03.03.04.09.08.24.09.35.06.13-.03.23-.11.27-.21,0-.02,0-.05,0-.07-.23-.78-.44-1.7-.53-2.22,0-.01,0-.03-.01-.04"/>
  <path class="cls-1" d="M175.68,38.46c-.12-.02-.24,0-.33.08-.01.01-.03.03-.03.04-.45,1.13-.7,1.53-2.34,1.53h-.09c-1.17-.02-1.34-.12-1.47-.28-.19-.23-.21-.83-.21-1.47v-1.88q0-.29.22-.29h.66c1.23,0,1.34.04,1.42.56l.1.44s.02.05.04.06c.1.08.26.1.38.08.1-.02.18-.06.23-.12.01-.02.02-.04.02-.07,0-.16-.01-.31-.02-.46-.01-.29-.03-.57-.03-.94s.01-.68.03-.97c0-.12.01-.23.02-.35,0-.02,0-.04-.02-.06-.04-.07-.13-.13-.24-.14-.14-.02-.29.02-.38.1-.01.01-.03.03-.03.05l-.1.36c-.1.53-.18.56-1.42.56h-.66c-.06,0-.17,0-.2-.01-.02-.03-.02-.18-.02-.27v-2.5q0-.76.48-.76h.92c.38,0,.78.05,1.07.13.38.12.57.42.79,1.27,0,.02.02.04.04.06.11.09.27.09.38.06.11-.03.2-.08.23-.16,0-.02.01-.04.01-.06-.04-.29-.08-.69-.11-1.07-.04-.46-.08-.85-.11-.99-.01-.06-.07-.09-.13-.09-.16.03-.88.04-1.84.04h-2.63c-.63,0-1.27-.02-1.77-.04-.02,0-.04,0-.06.01-.07.04-.13.12-.14.24-.02.11,0,.27.09.37.02.02.04.03.07.04l.22.03c.57.08.67.09.67,1.6v5.51c0,.95-.03,1.56-.67,1.73-.64.17-1.18,0-1.77-.41-.53-.37-1.17-1.55-2.06-3.17l-.35-.63s-.04-.09-.05-.09c.64-.28,1.72-.97,1.72-2.44,0-1.27-.69-1.93-1.27-2.26-.59-.34-1.49-.52-2.67-.52s-2.35.05-3.18.13c-.02,0-.04,0-.05.02-.07.05-.12.13-.13.24-.01.13.02.26.1.34.02.02.04.03.07.04l.36.04c.54.06.56.12.56,1.56v5.42c0,1.5-.09,1.51-.67,1.59l-.3.04s-.04.01-.06.02c-.09.07-.13.2-.11.33.01.13.08.24.16.29.02,0,.04.02.06.01,1.26-.06,2.49-.06,3.68,0,.02,0,.04,0,.06-.01.07-.04.13-.12.15-.24.02-.11,0-.27-.09-.37-.02-.02-.04-.03-.07-.04l-.3-.04c-.58-.08-.67-.09-.67-1.59v-1.89c0-.06,0-.17.01-.19.03-.02.2-.02.3-.02.42,0,.53.04.75.45.14.25.3.55.46.86.21.4.42.8.63,1.16.9,1.47,1.67,1.99,2.97,2.01.03,0,.06,0,.09,0,.4,0,1.03-.03,1.54-.05.58-.03,1.18-.06,1.74-.06h1.57c1.63,0,2.81.02,3.39.04.05.01.09-.02.11-.06.2-.41.5-1.55.59-2.18,0-.02,0-.05-.01-.07-.06-.1-.16-.17-.29-.2M164.23,33.78c0,1.37-.59,2-1.85,2q-.55,0-.55-.39v-3.08q0-.61.61-.61c1.23,0,1.79,1.08,1.79,2.08"/>
</svg>
