<?xml version="1.0" encoding="UTF-8"?>
<svg id="_レイヤー_1" data-name="レイヤー 1" xmlns="http://www.w3.org/2000/svg" viewBox="0 0 344.75 14.04">
  <defs>
    <style>
      .cls-1 {
        fill: #396542;
      }

      .cls-2 {
        fill: #200;
      }
    </style>
  </defs>
  <path class="cls-2" d="M47.85,2.09h2.08v9.86h-2.08v-4.2h-4.32v4.2h-2.08V2.09h2.08v3.8h4.32v-3.8ZM62.46,7.02c0,2.86-2.32,5.19-5.19,5.19s-5.19-2.33-5.19-5.19,2.32-5.19,5.19-5.19,5.19,2.33,5.19,5.19M60.45,7.02c0-1.75-1.43-3.19-3.18-3.19s-3.18,1.43-3.18,3.19,1.43,3.18,3.18,3.18,3.18-1.43,3.18-3.18M75.23,11.95h2.12V2.09h-2.12v9.86ZM97.56,8c0,1.44-.82,2.34-2.13,2.34s-2.13-.9-2.13-2.34V2.09h-2.08v6.13c0,2.38,1.62,3.99,4.22,3.99s4.22-1.61,4.22-3.99V2.09h-2.08v5.9ZM70.43,7.81l2.51,4.15h-2.31l-2.21-3.79h-1.72v3.79h-2.09V2.09h4.04c1.89,0,3.77.72,3.77,2.97,0,1.32-.71,2.35-1.98,2.74M70.36,5.11c0-.92-.88-1.4-1.58-1.4h-2.09v2.89h1.95c.77,0,1.73-.49,1.73-1.5M107.04,10.09c-.96,0-1.85-.33-2.38-.88-.6-.62-.88-1.32-.88-2.18s.28-1.57.88-2.19c.52-.56,1.41-.88,2.38-.88.18,0,.36,0,.54.03.37.05,1.26.2,2.02.65v-2.14c-.86-.62-2.71-.63-2.71-.63-1.62,0-2.95.61-3.98,1.81-.83.98-1.25,2.12-1.25,3.37s.42,2.39,1.25,3.37c1.03,1.21,2.36,1.82,3.98,1.82.97,0,1.97-.19,2.71-.63v-2.2c-.76.45-1.65.61-2.02.65-.17.02-.36.04-.54.04M118.83,5.89h-4.32v-3.8h-2.08v9.86h2.08v-4.2h4.32v4.2h2.08V2.09h-2.08v3.8ZM124.17,11.95h2.12V2.09h-2.12v9.86ZM139.02,10.09c-.96,0-1.85-.33-2.38-.88-.6-.62-.88-1.32-.88-2.18s.28-1.57.88-2.19c.52-.56,1.41-.88,2.38-.88.18,0,.36,0,.54.03.37.05,1.26.2,2.02.65v-2.14c-.86-.62-2.71-.63-2.71-.63-1.62,0-2.96.61-3.98,1.81-.84.98-1.25,2.12-1.25,3.37s.42,2.39,1.25,3.37c1.02,1.21,2.35,1.82,3.98,1.82.98,0,1.96-.19,2.71-.63v-2.2c-.76.45-1.65.61-2.02.65-.17.02-.35.04-.54.04M153.77,7.02c0,2.86-2.32,5.19-5.18,5.19s-5.19-2.33-5.19-5.19,2.32-5.19,5.19-5.19,5.18,2.33,5.18,5.19M151.76,7.02c0-1.75-1.43-3.19-3.18-3.19s-3.18,1.43-3.18,3.19,1.43,3.18,3.18,3.18,3.18-1.43,3.18-3.18M165.09,11.95h2.05v-3.94h3.88v-1.86h-3.88v-2.21h4.64v-1.86h-6.69v9.86ZM190.46,3.95v-1.86h-6.69v9.86h6.69v-1.87h-4.63v-2.13h3.87v-1.86h-3.87v-2.14h4.64ZM84.99,7.79h1.91v2.35s-1.68.42-3.08-.19c-.93-.43-1.76-1.29-1.77-2.94,0-.22.05-2.39,2.35-3.08.02,0,.48-.15,1.17-.15s1.66.13,2.68.73v-2.02c-.83-.45-1.93-.7-3.29-.63-2.86.14-5,2.16-4.99,5.15,0,0-.07,3.14,2.53,4.53,1.01.59,4.01,1.24,6.21-.11v-5.3h-3.72s0,1.65,0,1.65ZM155.87,11.95h2.06v-3.94h3.88v-1.86h-3.88v-2.21h4.63v-1.86h-6.69v9.86ZM174.31,11.95h6.69v-1.87h-4.63v-2.13h3.87v-1.86h-3.87v-2.14h4.64v-1.86h-6.69v9.86ZM19.29.59s4.22.91,4.63,4.55c.09.55-.21,1.17-.78,1.21-.07,0-13.95,0-14.02,0-.57-.05-.88-.66-.78-1.21.41-3.63,4.59-4.55,4.63-4.55v-.59H0v.59s4.22.91,4.63,4.55c.09.55-.21,1.17-.78,1.21-.14,0-.9,0-3.85,0v1.33c2.95,0,3.71,0,3.85,0,.57.05.87.67.78,1.21C4.22,12.53.04,13.44,0,13.44v.6h12.96v-.6s-4.22-.91-4.63-4.55c-.09-.55.21-1.16.78-1.21h14.02c.57.05.88.67.78,1.21-.41,3.64-4.59,4.55-4.63,4.55v.6h12.96v-.6s-4.22-.91-4.63-4.55c-.09-.55.22-1.16.78-1.21.14,0,.9,0,3.85,0v-1.33c-2.95,0-3.71,0-3.85,0-.57-.05-.87-.66-.78-1.21.41-3.63,4.59-4.55,4.63-4.55v-.59h-12.96v.59Z"/>
  <path class="cls-1" d="M208.08,7.79s-.03-.02-.06-.01c-.54.03-1,.04-1.63.04-.96,0-1.45-.02-1.94-.04-.03,0-.05,0-.07.02-.07.05-.12.13-.13.24-.01.13.02.27.1.35.01.02.03.03.05.03l.34.09c.82.15.82.17.82,1.16v.52c0,.47-.03.74-.1.84-.1.13-.37.29-1.11.29-.37,0-1.64-.08-2.51-1.19-.78-.99-.94-2.32-.94-3.26,0-2.62,1.27-4.18,3.4-4.18,1.32,0,2.2.71,2.47,2.01,0,.01,0,.02,0,.03.05.09.16.15.29.15h0c.15,0,.28-.07.33-.18,0-.02.01-.04,0-.05-.04-.6-.08-1.09-.11-1.49-.03-.34-.05-.61-.06-.81,0-.06-.05-.11-.11-.11-.14,0-.51-.05-.84-.13-.47-.1-1.16-.22-1.81-.22-1.86,0-3.37.6-4.37,1.74-.82.91-1.27,2.14-1.27,3.47s.44,2.53,1.21,3.38c.95,1.06,2.41,1.63,4.22,1.63.7,0,1.69-.15,2.63-.39.16-.04.32-.21.38-.41.06-.19.05-.4.05-.71,0-.1,0-.21,0-.33v-.84c0-.89.08-.9.49-.97l.24-.04s.04-.01.05-.02c.09-.07.13-.2.12-.33-.01-.12-.07-.22-.17-.27"/>
  <path class="cls-1" d="M234.93,9.48c-.12-.02-.24,0-.32.07-.01.01-.03.03-.03.04-.44,1.1-.68,1.49-2.28,1.49-.03,0-.06,0-.09,0-1.14-.01-1.31-.12-1.43-.28-.19-.23-.2-.81-.2-1.43v-1.83q0-.28.21-.28h.65c1.2,0,1.31.04,1.38.55l.09.43s.02.05.04.06c.1.08.26.1.37.08.1-.02.18-.06.22-.12.01-.02.02-.04.02-.06,0-.16,0-.3-.02-.45-.01-.27-.02-.56-.02-.92s.01-.66.03-.94c0-.12.01-.23.01-.35,0-.02,0-.04-.01-.06-.04-.07-.12-.12-.23-.14-.14-.02-.28.02-.37.1-.01.01-.03.03-.03.05l-.1.35c-.1.52-.18.55-1.38.55h-.65c-.06,0-.17,0-.19-.01-.02-.03-.02-.18-.02-.27v-2.44q0-.74.47-.74h.9c.37,0,.76.05,1.04.12.37.11.56.41.77,1.24,0,.02.02.04.04.06.1.08.27.09.37.06.11-.02.19-.08.23-.16,0-.02.01-.04,0-.06-.04-.29-.07-.67-.11-1.05-.04-.45-.08-.83-.11-.97-.01-.06-.07-.1-.13-.09-.15.02-.86.04-1.8.04h-2.57c-.62,0-1.25-.02-1.73-.04-.02,0-.04,0-.06.01-.07.04-.12.12-.14.23-.02.11,0,.27.08.36.02.02.04.03.07.04l.21.03c.56.08.66.09.66,1.57v5.38c0,1.46-.09,1.47-.65,1.54l-.5.06s-.05.02-.07.04c-.09.1-.1.26-.09.36.02.11.07.19.14.23.02,0,.04.02.06.01.62-.03,1.46-.04,2.01-.04h1.53c1.59,0,2.74.01,3.31.04h0s.08-.02.1-.06c.19-.4.49-1.51.57-2.13,0-.02,0-.05-.01-.07-.05-.1-.16-.17-.28-.19"/>
  <path class="cls-1" d="M246.25,2.08c-.48.03-.82.04-1.41.04-.52,0-1.01-.01-1.54-.04-.01,0-.03,0-.04,0-.09.03-.16.11-.18.23-.02.12,0,.29.11.38.02.01.04.02.06.03l.31.04c.32.04.49.13.59.31.24.43.24,1.97.24,2.79v2.94c-.25-.27-.77-.9-1.17-1.38-.24-.28-.46-.55-.63-.75l-1.34-1.56c-.48-.55-1.92-2.36-2.14-2.96-.02-.05-.07-.07-.11-.07-.31.03-.63.04-.92.04h-.17c-.36,0-.97,0-1.4-.04-.02,0-.03,0-.05,0-.09.03-.15.11-.18.23-.03.12-.01.29.08.38.01.01.03.02.05.03l.2.04c.19.04.54.15.66.26.41.37.41.56.41,1.6v3.52c0,1.11,0,2.38-.17,2.81-.06.16-.22.2-.47.26l-.34.08s-.04.01-.05.03c-.07.07-.11.18-.1.31,0,.12.06.23.14.28.02.01.05.03.07.02.44-.03.81-.04,1.39-.04.51,0,1.04.01,1.53.04.01,0,.03,0,.04,0,.09-.03.16-.11.18-.23.02-.12,0-.29-.11-.38-.02-.01-.04-.02-.06-.03l-.3-.04c-.32-.04-.51-.14-.6-.3-.23-.44-.23-1.97-.23-2.8v-2.82c0-.31,0-.54,0-.69.27.29.71.83,1.37,1.66l3.15,3.86c.93,1.14,1.3,1.59,1.51,1.9.02.03.05.04.08.05.02,0,.04,0,.06,0,.2,0,.44-.08.55-.25.02-.02.02-.05.02-.08-.02-.15-.04-.7-.04-2.46v-3.46c0-1.11,0-2.38.18-2.81.07-.16.21-.2.47-.26l.34-.08s.04-.01.05-.03c.08-.07.11-.18.1-.31-.01-.12-.06-.23-.14-.28-.02-.01-.05-.02-.07-.02"/>
  <path class="cls-1" d="M256.93,6.47c.97-.37,1.52-1.06,1.52-1.91,0-.92-.32-1.55-.99-1.97-.57-.35-1.4-.51-2.69-.51-1.15,0-2.16.04-3.08.13-.02,0-.04,0-.05.02-.07.05-.12.13-.13.24-.01.13.02.26.1.34.02.02.04.03.07.04l.35.04c.53.06.55.12.55,1.52v5.29c0,1.46-.09,1.47-.66,1.55l-.3.04s-.05.02-.07.03c-.09.1-.1.26-.09.36.02.11.07.19.14.23.02,0,.04.02.06.01.58-.03,1.2-.04,1.81-.04.24,0,.5,0,.77.02.29.01.59.02.9.02,1.53,0,2.47-.25,3.12-.84.71-.61.86-1.43.86-2.01,0-2.02-1.63-2.51-2.19-2.61M254.34,7.31c0-.23,0-.26.51-.26,1.45,0,2.32.84,2.32,2.26,0,1.26-.82,1.83-1.64,1.83-1.04,0-1.19-.39-1.19-1.74v-2.08ZM254.81,6.27q-.47,0-.47-.28v-2.62q0-.5.6-.5c.74,0,1.6.44,1.6,1.67s-.5,1.72-1.73,1.72"/>
  <path class="cls-1" d="M267.75,9.48c-.12-.02-.24,0-.32.07-.01.01-.02.03-.03.04-.44,1.1-.68,1.49-2.28,1.49-.03,0-.06,0-.09,0-1.14-.01-1.31-.12-1.43-.28-.19-.23-.2-.81-.2-1.43v-1.83q0-.28.21-.28h.64c1.2,0,1.3.04,1.38.55l.09.43s.02.05.04.06c.1.08.26.1.37.08.1-.02.18-.06.22-.12.01-.02.02-.04.02-.06,0-.16-.01-.3-.02-.44-.01-.29-.02-.56-.02-.92s.01-.67.03-.95c0-.12.01-.23.01-.34,0-.02,0-.04-.02-.06-.04-.07-.13-.12-.23-.14-.14-.02-.28.02-.37.1-.02.01-.03.03-.03.05l-.1.35c-.1.52-.18.55-1.38.55h-.64c-.06,0-.17,0-.19-.01-.02-.03-.02-.18-.02-.27v-2.44q0-.74.47-.74h.9c.37,0,.76.05,1.04.12.37.11.56.41.77,1.24,0,.02.02.04.04.06.11.08.27.09.37.06.11-.03.19-.08.23-.16,0-.02.01-.04.01-.06-.04-.28-.07-.67-.11-1.04-.04-.45-.08-.83-.11-.97-.01-.06-.06-.09-.13-.09-.15.02-.86.04-1.8.04h-2.57c-.62,0-1.25-.02-1.73-.04-.02,0-.04,0-.06.01-.07.04-.12.12-.14.23-.02.1,0,.26.09.36.02.02.04.03.07.04l.21.03c.56.08.66.09.66,1.57v5.38c0,1.46-.09,1.47-.65,1.54l-.5.06s-.05.02-.07.04c-.09.1-.1.26-.09.36.02.11.07.19.14.23.02,0,.04.02.06.01.62-.03,1.46-.04,2.01-.04h1.53c1.59,0,2.74.01,3.32.04h0s.08-.02.1-.06c.19-.4.49-1.51.57-2.13,0-.02,0-.05-.01-.07-.05-.1-.16-.17-.28-.19"/>
  <path class="cls-1" d="M277.64,11.29l-.2-.04c-.63-.13-.68-.19-.98-1.12l-1.94-6.06c-.11-.32-.2-.66-.3-.99-.1-.33-.2-.67-.3-.99,0-.01,0-.02-.02-.03-.08-.11-.18-.16-.32-.16h0c-.2,0-.4,0-.59,0-.36,0-.7.01-1.04,0-.02,0-.04,0-.06.01-.07.04-.12.12-.14.23-.02.11,0,.26.09.36.02.02.04.03.07.03l.21.03c.25.04.38.09.42.15.06.1-.03.37-.16.73,0,0,0,0,0,0-.03.09-.07.18-.1.27l-1.84,5.15-.11.3c-.23.63-.41,1.13-.55,1.46-.19.45-.31.53-.66.6l-.4.07s-.05.02-.07.04c-.13.18-.11.46.04.57.02.02.05.03.07.02.48-.03.89-.04,1.32-.04.17,0,.34,0,.5.01.36,0,.7.01.99.03.02,0,.04,0,.06-.01.07-.04.12-.12.14-.23.02-.11,0-.27-.09-.36-.02-.02-.04-.03-.06-.03l-.39-.07c-.21-.04-.36-.06-.41-.14-.07-.12.02-.45.09-.68l.55-1.78q.08-.27.34-.27h1.85q.35,0,.45.31l.63,1.97c.07.21.13.43.08.51-.04.06-.19.09-.34.11l-.3.04s-.05.02-.07.03c-.1.1-.08.27-.08.32.01.12.06.22.14.27.02.01.04.02.07.02h.37c.39-.03.83-.04,1.26-.04.65,0,1.16.01,1.74.04,0,0,0,0,0,0,.02,0,.05,0,.07-.02.07-.05.11-.14.11-.25,0-.1-.02-.25-.12-.34-.01-.01-.03-.02-.05-.03M272.94,4.85c.05.17.12.39.2.66l.56,1.73c.05.16.05.2.05.21-.03.02-.2.02-.26.02h-1.46c-.08,0-.17,0-.18.01,0-.04.05-.21.07-.28l.61-1.69.14-.41c.07-.23.14-.42.19-.55.03.08.06.18.09.3"/>
  <path class="cls-1" d="M288.28,2.08c-.48.03-.82.04-1.41.04-.52,0-1.01-.01-1.54-.04-.01,0-.03,0-.04,0-.09.03-.16.11-.18.23-.02.12,0,.29.12.38.01.01.04.02.06.03l.31.04c.32.04.49.13.59.31.24.43.24,1.97.24,2.79v2.94c-.25-.27-.76-.89-1.16-1.37-.24-.29-.47-.56-.63-.76l-1.34-1.56c-.48-.55-1.92-2.36-2.14-2.96-.02-.05-.07-.07-.11-.07-.31.03-.63.04-.92.04h-.17c-.36,0-.97,0-1.4-.04-.02,0-.03,0-.05,0-.09.03-.15.11-.18.23-.03.12-.01.29.08.38.01.01.03.02.05.03l.2.04c.19.04.54.16.66.26.41.37.41.56.41,1.6v3.52c0,1.11,0,2.38-.17,2.81-.07.16-.22.2-.48.26l-.33.08s-.04.01-.05.03c-.07.07-.11.18-.1.31,0,.12.06.23.14.28.02.01.04.03.07.02.44-.03.81-.04,1.39-.04.52,0,1.04.01,1.53.04.01,0,.03,0,.04,0,.09-.03.16-.11.18-.23.02-.12,0-.29-.11-.38-.02-.01-.04-.02-.06-.03l-.3-.04c-.32-.04-.51-.14-.6-.3-.23-.43-.23-1.97-.23-2.79v-2.82c0-.31,0-.54,0-.69.27.29.71.83,1.37,1.66l3.15,3.86c.94,1.16,1.3,1.59,1.51,1.9.02.03.05.04.08.05.02,0,.04,0,.06,0,.2,0,.44-.08.55-.25.02-.02.02-.05.02-.08-.02-.15-.04-.7-.04-2.46v-3.46c0-1.11,0-2.38.18-2.81.07-.16.21-.2.47-.26l.34-.08s.04-.01.05-.03c.08-.07.11-.19.1-.31-.01-.12-.06-.23-.14-.28-.02-.01-.05-.02-.07-.02"/>
  <path class="cls-1" d="M293.49,6.24l-.83-.48c-.79-.45-1.22-1.04-1.22-1.67,0-.68.37-1.41,1.41-1.41.84,0,1.42.55,1.71,1.64,0,.02.02.04.04.06.09.08.23.11.37.08.11-.02.19-.08.23-.16,0-.02.01-.03.01-.05,0-.65-.12-1.64-.29-2-.02-.03-.04-.05-.08-.06-.16-.03-.3-.07-.45-.1-.45-.1-.88-.2-1.41-.2-1.53,0-3.07.85-3.07,2.76,0,1.14.66,2.11,1.95,2.89l.58.35c.91.55,1.32,1.17,1.32,2s-.58,1.44-1.49,1.44c-1.39,0-2.06-1.84-2.18-2.21,0-.02-.02-.03-.03-.05-.08-.07-.2-.11-.32-.09-.12.02-.21.08-.27.18,0,.02-.01.03-.01.05-.01.84.14,1.91.43,2.27,0,0,.02.02.03.02.24.15.97.62,2.26.62,1.96,0,3.23-1.15,3.23-2.93,0-1.63-1.19-2.55-1.9-2.94"/>
  <path class="cls-1" d="M304.43,6.24l-.83-.48c-.79-.45-1.22-1.04-1.22-1.67,0-.68.37-1.41,1.41-1.41.84,0,1.42.55,1.71,1.64,0,.02.02.04.04.06.09.08.24.11.37.08.11-.02.19-.08.23-.16,0-.02.01-.03.01-.05,0-.65-.12-1.64-.29-2-.02-.03-.04-.05-.08-.06-.16-.03-.3-.07-.45-.1-.45-.1-.88-.2-1.41-.2-1.53,0-3.07.85-3.07,2.76,0,1.13.66,2.11,1.95,2.89l.58.35c.91.55,1.32,1.17,1.32,2s-.58,1.44-1.49,1.44c-1.38,0-2.06-1.84-2.18-2.21,0-.02-.02-.03-.03-.05-.08-.07-.2-.11-.32-.09-.12.02-.21.08-.27.18,0,.02-.01.03-.01.05-.01.84.14,1.91.43,2.27,0,0,.02.02.03.02.24.15.97.62,2.27.62,1.96,0,3.23-1.15,3.23-2.93,0-1.55-1.03-2.46-1.9-2.94"/>
  <path class="cls-1" d="M321.96,1.89c-2.85,0-4.92,2.21-4.92,5.24,0,2.48,1.68,4.98,4.9,4.98,2.76,0,4.84-2.19,4.84-5.08,0-2.48-1.51-5.14-4.82-5.14M324.73,7.29c0,2.56-.97,4.02-2.66,4.02-2.35,0-2.98-2.89-2.98-4.6,0-2.97,1.39-4.02,2.7-4.02,2.02,0,2.94,2.38,2.94,4.6"/>
  <path class="cls-1" d="M226.01,9.48c-.12-.02-.24,0-.32.07-.01.01-.02.03-.03.04-.44,1.1-.68,1.49-2.28,1.49-.03,0-.06,0-.09,0-1.14-.01-1.31-.12-1.43-.28-.19-.23-.2-.81-.2-1.43v-1.83q0-.28.21-.28h.65c1.2,0,1.3.04,1.38.55l.09.43s.02.05.04.06c.1.08.26.1.37.08.1-.02.18-.06.22-.12.01-.02.02-.04.02-.06,0-.16-.01-.3-.02-.44-.01-.29-.02-.56-.02-.92s.01-.67.03-.95c0-.12.01-.23.01-.34,0-.02,0-.04-.01-.06-.04-.07-.13-.12-.23-.14-.14-.02-.28.02-.37.1-.01.01-.02.03-.03.05l-.1.35c-.1.52-.18.55-1.38.55h-.65c-.06,0-.17,0-.19-.01-.02-.03-.02-.18-.02-.27v-2.44q0-.74.47-.74h.9c.37,0,.76.05,1.04.12.37.11.56.41.77,1.24,0,.02.02.04.04.06.1.09.27.09.37.06.11-.02.19-.08.23-.16,0-.02.01-.04.01-.06-.04-.28-.07-.67-.11-1.05-.04-.45-.08-.83-.11-.97-.01-.06-.07-.09-.13-.09-.15.02-.86.04-1.8.04h-2.57c-.62,0-1.24-.02-1.73-.04-.02,0-.04,0-.06.01-.07.04-.12.12-.14.23-.02.11,0,.26.09.36.02.02.04.03.07.03l.21.03c.56.08.66.09.66,1.57v5.38c0,.93-.03,1.52-.66,1.69-.62.17-1.15,0-1.73-.4-.51-.36-1.14-1.51-2.01-3.1l-.34-.62s-.03-.09-.05-.09c.63-.28,1.68-.95,1.68-2.39,0-1.24-.67-1.89-1.24-2.21-.57-.34-1.45-.51-2.61-.51s-2.29.05-3.1.13c-.02,0-.04,0-.05.02-.07.05-.12.13-.13.24-.01.13.02.26.1.34.02.02.04.03.07.04l.35.04c.53.06.55.12.55,1.52v5.29c0,1.46-.09,1.47-.66,1.55l-.3.04s-.04.01-.06.02c-.08.07-.12.19-.11.32.01.13.07.23.16.28.02,0,.04.02.06.01,1.23-.06,2.43-.06,3.59,0,.02,0,.04,0,.06-.01.07-.04.12-.12.14-.23.02-.11,0-.26-.08-.36-.02-.02-.04-.03-.07-.03l-.3-.04c-.57-.08-.66-.09-.66-1.55v-1.85c0-.06,0-.17.01-.18.03-.02.19-.02.29-.02.41,0,.51.04.74.44.14.25.29.53.45.84.2.39.41.79.61,1.13.88,1.44,1.64,1.95,2.9,1.96h.09c.38,0,1.01-.03,1.5-.05.57-.03,1.15-.06,1.69-.06h1.53c1.59,0,2.74.01,3.31.04.04.01.09-.02.11-.06.19-.4.49-1.51.57-2.13,0-.02,0-.05-.01-.07-.05-.1-.16-.17-.28-.19M214.83,4.91c0,1.33-.58,1.96-1.81,1.96q-.53,0-.53-.38v-3.01q0-.6.6-.6c1.2,0,1.74,1.05,1.74,2.03"/>
  <path class="cls-1" d="M316.03,1.8c-.05-.07-.13-.11-.24-.11-.1,0-.18.04-.23.11,0,.01-.01.03-.02.04-.05.25-.11.29-1.06.29h-4.89c-.95,0-1.01-.03-1.06-.29,0-.01,0-.03-.01-.04-.04-.07-.13-.11-.23-.11-.12,0-.2.04-.24.11,0,.01-.01.03-.01.04-.1.51-.3,1.41-.52,2.17,0,.02,0,.05,0,.07.04.1.13.17.26.2.11.03.26.02.35-.06.01-.01.02-.02.03-.04.49-1.15.81-1.26,1.99-1.26h.75q.25,0,.25.52v6.24c0,1.43-.07,1.44-.66,1.52l-.56.07s-.04.01-.05.02c-.11.09-.11.27-.1.32.01.13.06.24.15.28.02,0,.04.02.06.01.9-.03,1.52-.04,2.08-.04s1.16.01,1.97.04h0s.04,0,.05-.01c.07-.04.12-.12.14-.23.02-.11,0-.27-.09-.36-.02-.02-.04-.03-.07-.04l-.48-.06c-.57-.07-.65-.08-.65-1.54V3.45q0-.52.25-.52h.75c1.18,0,1.51.12,1.99,1.26,0,.01.02.03.03.04.09.08.24.08.35.06.13-.03.23-.11.26-.2,0-.02,0-.05,0-.07-.22-.76-.43-1.66-.52-2.17,0-.01,0-.03-.01-.04"/>
  <path class="cls-1" d="M344.46,9.48c-.12-.02-.24,0-.32.07-.01.01-.02.03-.03.04-.44,1.1-.68,1.49-2.28,1.49-.03,0-.06,0-.09,0-1.14-.01-1.31-.12-1.43-.28-.19-.23-.2-.81-.2-1.43v-1.83q0-.28.21-.28h.65c1.2,0,1.3.04,1.38.55l.09.43s.02.05.04.06c.1.08.26.1.37.08.1-.02.18-.06.22-.12.01-.02.02-.04.02-.06,0-.16-.01-.3-.02-.44-.01-.29-.02-.56-.02-.92s.01-.67.03-.95c0-.12.01-.23.02-.34,0-.02,0-.04-.02-.06-.04-.07-.13-.12-.23-.14-.14-.02-.28.02-.37.1-.01.01-.02.03-.03.05l-.1.35c-.1.52-.18.55-1.38.55h-.65c-.06,0-.17,0-.19-.01-.02-.03-.02-.18-.02-.27v-2.44q0-.74.47-.74h.9c.37,0,.76.05,1.04.12.37.11.56.41.77,1.24,0,.02.02.04.04.06.11.09.27.09.37.06.11-.02.19-.08.23-.16,0-.02.01-.04.01-.06-.04-.28-.07-.67-.11-1.05-.04-.45-.08-.83-.11-.97-.01-.06-.07-.09-.13-.09-.15.02-.86.04-1.8.04h-2.57c-.62,0-1.24-.02-1.73-.04-.02,0-.04,0-.06.01-.07.04-.12.12-.14.23-.02.11,0,.26.08.36.02.02.04.03.07.03l.21.03c.56.08.66.09.66,1.57v5.38c0,.93-.03,1.52-.66,1.69-.62.17-1.15,0-1.73-.4-.51-.36-1.14-1.51-2.01-3.1l-.34-.62s-.03-.09-.05-.09c.63-.28,1.68-.95,1.68-2.39,0-1.24-.67-1.89-1.24-2.21-.57-.34-1.45-.51-2.61-.51s-2.29.05-3.1.13c-.02,0-.04,0-.05.02-.07.05-.12.13-.13.24-.02.13.02.26.1.34.02.02.04.03.07.04l.35.04c.53.06.55.12.55,1.52v5.29c0,1.46-.09,1.47-.66,1.55l-.3.04s-.04.01-.05.02c-.08.07-.12.19-.11.32.01.13.07.23.16.28.02,0,.04.02.06.01,1.23-.06,2.43-.06,3.59,0,.02,0,.04,0,.06-.01.07-.04.12-.12.14-.23.02-.11,0-.26-.08-.36-.02-.02-.04-.03-.07-.03l-.3-.04c-.57-.08-.66-.09-.66-1.55v-1.85c0-.06,0-.17.01-.18.03-.02.19-.02.29-.02.41,0,.51.04.74.44.14.25.29.53.45.84.2.39.41.79.61,1.13.88,1.44,1.64,1.95,2.9,1.96h.09c.38,0,1.01-.03,1.5-.05.57-.03,1.15-.06,1.7-.06h1.53c1.59,0,2.74.01,3.31.04.04.01.09-.02.11-.06.19-.4.49-1.51.57-2.13,0-.02,0-.05-.01-.07-.05-.1-.16-.17-.28-.19M333.28,4.91c0,1.33-.58,1.96-1.81,1.96q-.53,0-.53-.38v-3.01q0-.6.6-.6c1.2,0,1.74,1.05,1.74,2.03"/>
</svg>
